<svg id="图层_1" data-name="图层 1" xmlns="http://www.w3.org/2000/svg" viewBox="0 0 36.49 38.33"><defs><style>.cls-1{fill:#bbc6e6;}.cls-2{fill:#f3f5fb;}.cls-3{fill:none;}.cls-4{fill:#dee5f6;}.cls-5{fill:#c4cbdc;}.cls-6{fill:#dee3f1;}.cls-7{fill:#8095d1;}.cls-8{fill:#4463b9;}.cls-9{fill:#f2f2f2;}.cls-10{fill:#385593;}</style></defs><path class="cls-1" d="M21.78,20.89a1.72,1.72,0,0,0-1.57-.06L7.13,28.38c-.4.23-.35.63.12.9L22.52,38.1a1.71,1.71,0,0,0,1.57.06l13.07-7.55c.4-.23.35-.63-.11-.9Zm0,0" transform="translate(-5.72 -4.53)"/><path class="cls-1" d="M6.86,28.1v.67l.55.32.16-.83Zm30.57,1.46v.66l-.64.34-.22-.74Zm0,0" transform="translate(-5.72 -4.53)"/><path class="cls-2" d="M21.78,20.22a1.78,1.78,0,0,0-1.57-.06L7.13,27.71c-.4.23-.35.64.12.9l15.27,8.82a1.75,1.75,0,0,0,1.57.07L37.16,30c.4-.23.35-.64-.11-.91Zm0,0" transform="translate(-5.72 -4.53)"/><rect class="cls-3" width="36.49" height="38.33"/><path class="cls-4" d="M18,23.2a.36.36,0,0,0-.35,0l-2.95,1.7c-.09.05-.08.14,0,.2l14.15,8.17a.4.4,0,0,0,.35,0l2.95-1.7c.09-.06.08-.15,0-.21Zm0,0" transform="translate(-5.72 -4.53)"/><path class="cls-5" d="M34.06,29.11a.47.47,0,0,1-.4,0,.13.13,0,0,1,0-.24.47.47,0,0,1,.4,0,.13.13,0,0,1,0,.24Zm-2.28,1.32a.49.49,0,0,1-.41,0,.13.13,0,0,1,0-.24.49.49,0,0,1,.41,0,.13.13,0,0,1,0,.24Zm-2.29,1.32a.47.47,0,0,1-.4,0,.13.13,0,0,1,0-.24.47.47,0,0,1,.4,0,.13.13,0,0,1,0,.24Zm-2.28,1.32a.49.49,0,0,1-.41,0,.13.13,0,0,1,0-.24.49.49,0,0,1,.41,0,.13.13,0,0,1,0,.24Zm-2.29,1.31a.41.41,0,0,1-.4,0c-.11-.06-.11-.16,0-.23a.47.47,0,0,1,.4,0c.11.07.11.17,0,.23ZM22.64,35.7a.43.43,0,0,1-.41,0c-.11-.06-.11-.16,0-.23a.49.49,0,0,1,.41,0c.11.07.11.17,0,.23Zm0,0" transform="translate(-5.72 -4.53)"/><path class="cls-6" d="M18.26,21.29l17,9.79,0,0L18.31,21.26ZM16,22.6l17,9.79.05,0L16,22.57Zm0,0" transform="translate(-5.72 -4.53)"/><path class="cls-6" d="M34.41,27.53,19.88,35.92l.06,0,14.53-8.39Zm0,0" transform="translate(-5.72 -4.53)"/><path class="cls-5" d="M21,21.57a.47.47,0,0,1-.4,0,.13.13,0,0,1,0-.24.47.47,0,0,1,.4,0,.13.13,0,0,1,0,.24Zm-2.28,1.32a.49.49,0,0,1-.41,0,.13.13,0,0,1,0-.24.49.49,0,0,1,.41,0,.13.13,0,0,1,0,.24Zm-2.29,1.32a.47.47,0,0,1-.4,0A.13.13,0,0,1,16,24a.47.47,0,0,1,.4,0,.13.13,0,0,1,0,.24Zm-2.29,1.31a.41.41,0,0,1-.4,0c-.11-.06-.11-.16,0-.23a.47.47,0,0,1,.4,0c.12.07.12.17,0,.23Zm-2.28,1.32a.41.41,0,0,1-.4,0c-.11-.06-.11-.16,0-.23a.47.47,0,0,1,.4,0c.11.07.11.17,0,.23ZM9.57,28.16a.41.41,0,0,1-.4,0,.12.12,0,0,1,0-.23.47.47,0,0,1,.4,0c.12.06.12.17,0,.23Zm13.61-5.34a.43.43,0,0,1-.41,0,.12.12,0,0,1,0-.23.49.49,0,0,1,.41,0,.12.12,0,0,1,0,.23Zm-2.29,1.32a.41.41,0,0,1-.4,0,.12.12,0,0,1,0-.23.47.47,0,0,1,.4,0,.12.12,0,0,1,0,.23Zm-2.28,1.32a.43.43,0,0,1-.41,0,.12.12,0,0,1,0-.23.49.49,0,0,1,.41,0,.12.12,0,0,1,0,.23Zm-2.29,1.32a.41.41,0,0,1-.4,0,.12.12,0,0,1,0-.23.41.41,0,0,1,.4,0,.12.12,0,0,1,0,.23ZM14,28.1a.49.49,0,0,1-.41,0,.12.12,0,0,1,0-.23.43.43,0,0,1,.41,0,.12.12,0,0,1,0,.23Zm-2.29,1.32a.47.47,0,0,1-.4,0,.12.12,0,0,1,0-.23.41.41,0,0,1,.4,0,.12.12,0,0,1,0,.23Zm13.6-5.34a.47.47,0,0,1-.4,0,.12.12,0,0,1,0-.23.41.41,0,0,1,.4,0,.12.12,0,0,1,0,.23ZM23.07,25.4a.47.47,0,0,1-.4,0c-.12-.06-.12-.17,0-.23a.41.41,0,0,1,.4,0,.12.12,0,0,1,0,.23Zm-2.29,1.32a.47.47,0,0,1-.4,0c-.11-.07-.11-.17,0-.23a.41.41,0,0,1,.4,0c.11.06.11.16,0,.23ZM18.5,28a.47.47,0,0,1-.4,0c-.12-.07-.12-.17,0-.23a.41.41,0,0,1,.4,0c.11.06.11.16,0,.23Zm-2.29,1.32a.47.47,0,0,1-.4,0,.13.13,0,0,1,0-.24.47.47,0,0,1,.4,0,.13.13,0,0,1,0,.24Zm-2.28,1.32a.47.47,0,0,1-.4,0c-.12-.07-.12-.17,0-.24a.47.47,0,0,1,.4,0,.13.13,0,0,1,0,.24Zm13.6-5.34a.47.47,0,0,1-.4,0,.13.13,0,0,1,0-.24.47.47,0,0,1,.4,0,.13.13,0,0,1,0,.24Zm-2.28,1.32a.49.49,0,0,1-.41,0,.13.13,0,0,1,0-.24.49.49,0,0,1,.41,0,.13.13,0,0,1,0,.24ZM23,28a.47.47,0,0,1-.4,0,.13.13,0,0,1,0-.24.47.47,0,0,1,.4,0A.13.13,0,0,1,23,28ZM20.68,29.3a.49.49,0,0,1-.41,0,.13.13,0,0,1,0-.24.49.49,0,0,1,.41,0,.13.13,0,0,1,0,.24Zm-2.29,1.31a.41.41,0,0,1-.4,0c-.11-.06-.11-.16,0-.23a.47.47,0,0,1,.4,0c.11.07.11.17,0,.23ZM16.1,31.93a.41.41,0,0,1-.4,0,.12.12,0,0,1,0-.23.47.47,0,0,1,.4,0c.12.06.12.17,0,.23Zm13.61-5.34a.43.43,0,0,1-.41,0c-.11-.06-.11-.16,0-.23a.49.49,0,0,1,.41,0c.11.07.11.17,0,.23Zm-2.29,1.32a.41.41,0,0,1-.4,0,.12.12,0,0,1,0-.23.47.47,0,0,1,.4,0,.12.12,0,0,1,0,.23Zm-2.28,1.32a.43.43,0,0,1-.41,0,.12.12,0,0,1,0-.23.49.49,0,0,1,.41,0,.12.12,0,0,1,0,.23Zm-2.29,1.32a.41.41,0,0,1-.4,0,.12.12,0,0,1,0-.23.41.41,0,0,1,.4,0,.12.12,0,0,1,0,.23Zm-2.28,1.32a.43.43,0,0,1-.41,0,.12.12,0,0,1,0-.23.43.43,0,0,1,.41,0,.12.12,0,0,1,0,.23Zm-2.29,1.32a.47.47,0,0,1-.4,0,.12.12,0,0,1,0-.23.41.41,0,0,1,.4,0,.12.12,0,0,1,0,.23Zm13.6-5.34a.47.47,0,0,1-.4,0,.12.12,0,0,1,0-.23.41.41,0,0,1,.4,0c.12.06.12.17,0,.23ZM29.6,29.17a.47.47,0,0,1-.4,0c-.12-.06-.12-.17,0-.23a.41.41,0,0,1,.4,0,.12.12,0,0,1,0,.23Zm-2.29,1.32a.47.47,0,0,1-.4,0c-.11-.07-.11-.17,0-.23a.41.41,0,0,1,.4,0c.11.06.11.16,0,.23ZM25,31.81a.47.47,0,0,1-.4,0c-.12-.07-.12-.17,0-.23a.41.41,0,0,1,.4,0c.11.06.11.16,0,.23Zm-2.29,1.32a.47.47,0,0,1-.4,0c-.11-.07-.11-.17,0-.23a.41.41,0,0,1,.4,0c.11.06.11.16,0,.23Zm-2.28,1.32a.47.47,0,0,1-.4,0c-.12-.07-.12-.17,0-.24a.47.47,0,0,1,.4,0,.13.13,0,0,1,0,.24Zm0,0" transform="translate(-5.72 -4.53)"/><path class="cls-6" d="M23.36,21.15,8.83,29.54l.05,0,14.53-8.39Zm0,0" transform="translate(-5.72 -4.53)"/><path class="cls-6" d="M13.71,23.91l17,9.79,0,0L13.77,23.88Zm-2.27,1.31,17,9.79.06,0-17-9.79ZM9.17,26.53l17,9.79.06,0-17-9.79Zm0,0" transform="translate(-5.72 -4.53)"/><path class="cls-6" d="M25.57,22.42,11,30.81l.05,0,14.53-8.39Zm2.21,1.28L13.25,32.09l.05,0,14.54-8.39ZM30,25,15.46,33.36l.06,0L30.05,25Zm2.21,1.28L17.67,34.64l.06,0,14.53-8.39Zm0,0" transform="translate(-5.72 -4.53)"/><path class="cls-7" d="M33.18,14.8a.59.59,0,0,0-.25-.48L16.08,4.59c-.13-.08-.25,0-.25.19v16a.61.61,0,0,0,.25.47L32.93,31c.14.08.25,0,.25-.19Zm0,0" transform="translate(-5.72 -4.53)"/><rect class="cls-3" width="36.49" height="38.33"/><path class="cls-8" d="M30.29,16.47A.59.59,0,0,0,30,16L13.19,6.26c-.14-.08-.25,0-.25.19v16a.59.59,0,0,0,.25.47L30,32.68c.14.08.25,0,.25-.19Zm0,0" transform="translate(-5.72 -4.53)"/><path class="cls-9" d="M17.75,18.63l-.27.12L19,21.86l.27-.12Zm0,0" transform="translate(-5.72 -4.53)"/><path class="cls-9" d="M19.3,17.93l-1.82.82.22.45,1.82-.82Zm0,0" transform="translate(-5.72 -4.53)"/><path class="cls-9" d="M23.36,22.62l.27-.12-1.52-3.11-.27.12Zm0,0" transform="translate(-5.72 -4.53)"/><path class="cls-9" d="M21.81,23.32l1.82-.82-.22-.45-1.82.81Zm0,0" transform="translate(-5.72 -4.53)"/><path class="cls-10" d="M30.29,16.48A.64.64,0,0,0,30,16L13.18,6.25c-.13-.07-.24,0-.24.18V7.94L30.29,18Zm0,0" transform="translate(-5.72 -4.53)"/><path class="cls-9" d="M18.94,13.65a.49.49,0,0,0-.21-.39l-4.67-2.7c-.11-.07-.2,0-.2.15a.52.52,0,0,0,.2.4l4.67,2.69c.11.07.21,0,.21-.15Zm2,1.14a.5.5,0,0,0-.2-.39l-1.26-.72c-.11-.07-.2,0-.2.15a.49.49,0,0,0,.2.39l1.26.73c.11.06.2,0,.2-.16Zm.59,4.43-.2-.33L19.59,22l.2.33Zm0,0" transform="translate(-5.72 -4.53)"/></svg>